<?xml version="1.0" encoding="utf-8"?>
<svg viewBox="0 0 500 500" xmlns="http://www.w3.org/2000/svg">
  <path d=" M 320.68 126.31 C 317.14 195.64 319.51 264.72 312.22 333.99 Q 309.66 358.30 302.91 380.62 C 294.94 407.03 258.77 423.82 232.76 420.84 C 217.26 419.06 204.80 409.04 202.54 393.44 C 198.86 367.93 219.71 344.13 242.00 335.29 C 259.58 328.33 281.19 325.95 299.98 327.58 Q 300.91 327.66 300.97 326.73 C 302.17 310.58 303.57 294.93 303.83 278.93 Q 305.09 201.54 304.44 174.81 Q 303.46 134.41 302.72 94.00 Q 302.47 80.88 306.63 64.21 A 0.63 0.62 8.2 0 1 307.28 63.73 C 309.91 63.86 313.45 62.89 314.30 66.55 C 319.14 87.52 334.90 105.81 350.13 121.13 C 382.45 153.63 421.40 191.53 410.61 242.84 C 405.72 266.09 393.34 288.71 377.11 306.00 C 373.63 309.72 364.34 318.45 359.26 314.81 Q 358.81 314.49 359.21 314.12 Q 367.64 306.32 370.23 303.74 C 419.08 254.88 352.58 166.48 321.13 126.17 Q 320.71 125.64 320.68 126.31 Z" style="paint-order: fill; fill: rgb(255, 255, 255);"/>
  <path d=" M 251.32 94.67 C 265.04 106.42 269.09 117.71 267.80 135.74 C 266.82 149.51 262.42 159.76 250.81 167.07 C 224.84 183.45 181.48 170.17 181.28 135.64 C 181.16 115.89 193.86 100.28 211.19 91.67 C 224.19 85.22 240.13 85.08 251.32 94.67 Z M 257.18 104.21 C 250.78 96.90 244.23 91.20 234.15 89.98 C 232.50 89.78 231.28 90.27 229.51 90.10 C 215.10 88.77 198.35 101.17 190.87 112.59 C 183.63 123.64 181.33 138.35 187.25 150.32 C 202.33 180.78 259.41 178.81 264.53 141.26 C 266.25 128.66 265.96 114.23 257.18 104.21 Z" style="paint-order: fill; fill: rgb(255, 255, 255);"/>
  <rect x="-1.33" y="-16.13" transform="matrix(0.9996101150287356, -0.027921639139525566, 0.027921639139525566, 0.9996101150287356, 235.32000732421875, 121.2300033569336)" width="2.66" height="32.26" rx="1.16" style="paint-order: fill; fill: rgb(255, 255, 255);"/>
  <path d=" M 218.04 106.77 Q 219.21 107.68 218.74 108.86 Q 218.55 109.32 218.52 109.81 L 217.03 133.25 A 0.37 0.32 40.3 0 0 217.06 133.43 Q 217.98 135.55 216.25 136.48 A 1.28 1.28 0.0 0 1 214.36 135.27 L 215.97 107.70 A 1.28 1.28 0.0 0 1 218.04 106.77 Z" style="paint-order: fill; fill: rgb(255, 255, 255);"/>
  <path d=" M 199.82 142.60 L 197.70 144.05 A 0.52 0.52 0.0 0 1 196.98 143.91 L 196.35 142.98 A 0.82 0.81 53.1 0 1 196.50 141.90 L 203.43 136.16 Q 203.91 135.76 204.37 136.17 L 205.21 136.93 Q 205.73 137.39 205.24 137.88 L 203.07 140.05 Q 202.70 140.43 202.77 140.95 C 203.32 145.08 211.49 150.76 214.87 152.50 C 227.03 158.77 239.61 154.74 248.37 144.60 Q 249.70 143.05 250.20 142.04 A 0.66 0.66 0.0 0 0 249.89 141.14 Q 248.22 140.35 248.80 138.77 A 1.18 1.17 35.3 0 1 250.81 138.43 L 255.23 143.81 Q 255.61 144.28 255.20 144.73 L 254.47 145.55 A 0.66 0.66 0.0 0 1 253.49 145.56 L 252.50 144.47 Q 252.06 143.99 251.68 144.52 Q 244.04 155.13 232.69 157.42 C 220.81 159.82 211.63 155.08 203.61 147.39 Q 201.57 145.44 200.50 142.81 Q 200.29 142.28 199.82 142.60 Z" style="paint-order: fill; fill: rgb(255, 255, 255);"/>
  <path d=" M 80.17 146.65 L 257.05 217.20 A 0.41 0.41 0.0 0 1 257.18 217.88 L 118.24 348.11 A 0.41 0.41 0.0 0 1 117.56 347.89 L 79.62 147.11 A 0.41 0.41 0.0 0 1 80.17 146.65 Z" style="paint-order: fill; fill: rgb(255, 255, 255);"/>
  <path d=" M 265.67 253.15 C 271.08 247.17 276.48 252.74 280.90 256.24 A 1.56 1.55 34.0 0 1 281.29 258.23 C 278.67 262.82 272.95 251.44 269.04 255.30 A 0.98 0.97 63.5 0 0 268.76 256.15 C 269.12 258.58 272.81 261.34 274.39 263.06 A 1.78 1.77 -46.6 0 1 274.45 265.38 Q 273.01 267.17 271.15 265.35 Q 265.22 259.54 259.25 252.98 A 1.62 1.62 0.0 0 1 259.61 250.50 L 260.41 250.01 A 0.93 0.92 50.1 0 1 261.50 250.11 L 264.91 253.18 Q 265.31 253.55 265.67 253.15 Z" style="paint-order: fill; fill: rgb(255, 255, 255);"/>
  <path d=" M 264.24 270.47 Q 264.51 268.38 266.41 267.73 A 1.69 1.68 0.6 0 1 268.54 269.90 C 266.40 275.76 259.94 277.66 255.42 272.83 C 251.86 269.03 252.05 262.66 257.50 260.72 C 259.04 260.17 260.39 261.03 260.24 262.68 A 1.01 1.00 76.7 0 1 259.79 263.42 L 257.70 264.81 Q 256.54 265.57 256.84 266.93 Q 258.06 272.40 263.42 271.34 A 1.03 1.02 88.4 0 0 264.24 270.47 Z" style="paint-order: fill; fill: rgb(255, 255, 255);"/>
  <path d=" M 254.16 280.96 L 255.52 279.98 Q 255.90 279.71 256.35 279.83 C 257.86 280.20 258.13 281.57 257.24 282.79 C 253.58 287.79 247.47 281.35 244.99 278.40 Q 244.66 278.00 244.17 278.18 Q 243.65 278.36 243.29 278.83 A 1.72 1.45 85.6 0 1 241.06 276.56 L 241.71 275.57 A 0.54 0.54 0.0 0 0 241.54 274.81 Q 239.90 273.81 239.38 271.88 A 1.45 1.45 0.0 0 1 241.69 270.38 L 243.93 272.17 Q 244.22 272.40 244.49 272.13 L 245.53 271.10 Q 245.83 270.79 246.26 270.75 Q 248.02 270.59 248.28 272.30 A 1.23 1.21 59.7 0 1 248.05 273.20 L 247.09 274.47 Q 246.77 274.90 247.08 275.34 Q 249.56 278.76 253.13 280.99 Q 253.65 281.32 254.16 280.96 Z" style="paint-order: fill; fill: rgb(255, 255, 255);"/>
  <path d=" M 233.68 298.56 C 228.89 294.72 227.85 285.38 235.55 284.14 A 1.25 1.24 60.7 0 1 236.56 284.43 L 243.21 290.08 A 0.94 0.94 0.0 0 0 244.09 290.26 Q 244.70 290.08 245.17 289.58 A 1.55 1.55 0.0 0 1 247.83 290.90 Q 247.19 294.53 243.42 294.03 Q 242.82 293.95 242.79 294.56 C 242.55 299.88 237.82 301.88 233.68 298.56 Z M 237.20 296.31 A 1.08 1.07 12.1 0 0 238.82 295.27 Q 238.39 291.23 235.26 288.55 A 0.70 0.70 0.0 0 0 234.12 288.91 Q 232.87 293.80 237.20 296.31 Z" style="paint-order: fill; fill: rgb(255, 255, 255);"/>
  <path d=" M 214.74 306.53 A 0.39 0.39 0.0 0 0 214.30 307.17 L 222.32 315.20 A 1.85 1.85 0.0 0 1 222.20 317.93 Q 220.45 319.37 218.82 317.63 C 214.59 313.08 209.97 309.05 205.94 304.58 A 1.94 1.93 -16.7 0 1 207.67 301.37 L 214.56 302.39 A 0.42 0.42 0.0 0 0 215.03 301.89 L 213.58 295.73 A 2.00 2.00 0.0 0 1 216.57 293.57 Q 224.34 298.33 232.32 303.41 C 235.42 305.38 232.70 308.72 229.91 306.90 Q 224.86 303.60 219.74 300.43 Q 219.05 300.00 219.20 300.80 L 220.00 305.14 A 1.05 1.04 -22.8 0 1 219.56 306.20 Q 217.36 307.70 214.74 306.53 Z" style="paint-order: fill; fill: rgb(255, 255, 255);"/>
  <path d=" M 197.50 320.09 L 194.82 316.85 Q 194.42 316.37 194.63 315.78 Q 195.16 314.28 196.71 314.50 A 1.33 1.30 71.3 0 1 197.48 314.89 L 209.66 327.41 A 0.82 0.80 -56.7 0 1 209.83 328.27 C 203.31 344.40 187.73 329.48 197.43 320.99 Q 197.90 320.58 197.50 320.09 Z M 205.27 328.02 L 201.20 324.02 A 1.19 1.19 0.0 0 0 199.52 324.04 L 198.82 324.74 A 3.88 3.88 0.0 0 0 198.87 330.23 L 199.10 330.45 A 3.88 3.88 0.0 0 0 204.59 330.41 L 205.28 329.70 A 1.19 1.19 0.0 0 0 205.27 328.02 Z" style="paint-order: fill; fill: rgb(255, 255, 255);"/>
  <path d=" M 193.9978 345.9551 A 7.97 6.77 42.8 0 1 183.5502 345.5074 A 7.97 6.77 42.8 0 1 182.3022 335.1249 A 7.97 6.77 42.8 0 1 192.7498 335.5726 A 7.97 6.77 42.8 0 1 193.9978 345.9551 Z M 191.0633 343.3734 A 4.05 2.84 44.0 0 0 190.1228 338.5171 A 4.05 2.84 44.0 0 0 185.2367 337.7466 A 4.05 2.84 44.0 0 0 186.1772 342.6029 A 4.05 2.84 44.0 0 0 191.0633 343.3734 Z" style="paint-order: fill; fill: rgb(255, 255, 255);"/>
  <path d=" M 181.4216 358.8063 A 7.97 6.77 43.6 0 1 170.9813 358.2126 A 7.97 6.77 43.6 0 1 169.8784 347.8137 A 7.97 6.77 43.6 0 1 180.3187 348.4074 A 7.97 6.77 43.6 0 1 181.4216 358.8063 Z M 178.6099 356.0704 A 4.04 2.88 43.1 0 0 177.6278 351.2071 A 4.04 2.88 43.1 0 0 172.7101 350.5496 A 4.04 2.88 43.1 0 0 173.6922 355.4129 A 4.04 2.88 43.1 0 0 178.6099 356.0704 Z" style="paint-order: fill; fill: rgb(255, 255, 255);"/>
  <path d=" M 153.05 368.17 L 161.06 376.19 A 1.86 1.85 41.4 0 1 161.22 378.64 Q 160.46 379.62 159.20 379.50 Q 158.72 379.46 158.36 379.13 C 153.88 375.12 147.73 369.90 144.42 364.94 A 1.02 1.00 -47.1 0 1 144.39 363.87 C 145.95 361.26 150.88 363.01 153.35 363.45 A 0.38 0.37 88.9 0 0 153.78 363.00 L 152.35 356.86 A 2.04 2.04 0.0 0 1 155.41 354.66 Q 163.05 359.35 171.04 364.14 Q 172.42 364.97 172.51 366.26 A 2.07 2.07 0.0 0 1 169.36 368.16 L 158.33 361.38 Q 157.64 360.95 157.83 361.75 L 158.71 365.38 A 2.17 2.17 0.0 0 1 156.36 368.04 L 153.28 367.69 Q 152.47 367.60 153.05 368.17 Z" style="paint-order: fill; fill: rgb(255, 255, 255);"/>
</svg>